Coordinates
version=1
nRows=12
nColumns=24
inDegrees=yes

Units are S.I. units (second, meters, Newtons, ...)
Angles are in degrees.

endheader
time	pelvis_tilt	pelvis_list	pelvis_rotation	pelvis_tx	pelvis_ty	pelvis_tz	hip_flexion_r	hip_adduction_r	hip_rotation_r	knee_angle_r	ankle_angle_r	subtalar_angle_r	mtp_angle_r	hip_flexion_l	hip_adduction_l	hip_rotation_l	knee_angle_l	ankle_angle_l	subtalar_angle_l	mtp_angle_l	lumbar_extension	lumbar_bending	lumbar_rotation
      4.95500000	     11.77517726	      5.50173871	      3.02645329	      0.49833542	      0.93922376	     -0.28152534	     -1.68984887	     -8.75976751	     -3.69285976	    -65.37949367	     10.73022374	     -4.33012110	      0.00000000	     -7.42467542	      7.84526410	     10.60682859	    -11.90367302	     15.62138259	     -3.09606993	      0.00000000	    -28.04926540	     -5.66285427	     -2.76902987
      4.96000000	     11.77715555	      5.22919006	      3.16519185	      0.50436865	      0.94000358	     -0.28195619	     -0.84011792	     -8.41983479	     -3.84245434	    -65.22780783	     11.54194132	     -4.35578114	      0.00000000	     -8.02916115	      7.49661633	     10.68397564	    -11.45707084	     15.68608522	     -3.08088796	      0.00000000	    -28.05867431	     -5.26970753	     -2.99006647
      4.96500000	     11.76684627	      4.95586689	      3.35830269	      0.51038230	      0.94072656	     -0.28241542	     -0.00829109	     -8.07637609	     -4.05255599	    -64.98353429	     12.33168117	     -4.34045420	      0.00000000	     -8.61276533	      7.13495775	     10.77871641	    -11.02400422	     15.78364423	     -3.01019510	      0.00000000	    -28.05939621	     -4.85767199	     -3.26870198
      4.97000000	     11.76163125	      4.70728344	      3.68642461	      0.51637667	      0.94141860	     -0.28300697	      0.75745795	     -7.76557592	     -4.42183508	    -64.63005738	     13.09122032	     -4.32343352	      0.00000000	     -9.19122021	      6.77470301	     10.97366913	    -10.61966114	     15.91547067	     -2.89159850	      0.00000000	    -28.07570790	     -4.41229951	     -3.71593326
      4.97500000	     11.75059727	      4.45016784	      3.87278655	      0.52232013	      0.94202543	     -0.28345368	      1.56314892	     -7.44917174	     -4.63573387	    -64.22628909	     13.85423945	     -4.18263055	      0.00000000	     -9.76066173	      6.42728843	     11.02732224	    -10.19326161	     16.00333873	     -2.85266196	      0.00000000	    -28.08306877	     -4.01536443	     -3.97585839
      4.98000000	     11.71680969	      4.21737594	      4.02772652	      0.52833796	      0.94258077	     -0.28383473	      2.37535575	     -7.15593350	     -4.81131065	    -63.73966520	     14.55068944	     -4.01209182	      0.00000000	    -10.32566689	      6.10440804	     11.01737978	     -9.72447914	     16.01997800	     -2.80119222	      0.00000000	    -28.04842438	     -3.65733169	     -4.24227137
      4.98500000	     11.71688748	      3.97642961	      4.40059650	      0.53426079	      0.94313074	     -0.28435858	      3.06999027	     -6.85370212	     -5.21525721	    -63.12841195	     15.24673363	     -3.81752065	      0.00000000	    -10.88683473	      5.72360410	     11.19899902	     -9.33874827	     16.15775971	     -2.62744968	      0.00000000	    -28.08083440	     -3.22176494	     -4.71612106
      4.99000000	     11.67397491	      3.75775002	      4.52882320	      0.54023210	      0.94354502	     -0.28470205	      3.86178883	     -6.58073270	     -5.35944895	    -62.48998439	     15.90452855	     -3.54745727	      0.00000000	    -11.43034235	      5.42132629	     11.14563020	     -8.88088229	     16.17303542	     -2.61771435	      0.00000000	    -28.04030060	     -2.89033125	     -4.94490498
      4.99500000	     11.63867056	      3.52840644	      4.76229831	      0.54617842	      0.94391372	     -0.28503233	      4.59223490	     -6.28575680	     -5.59114304	    -61.74791723	     16.55145016	     -3.21087974	      0.00000000	    -11.95952870	      5.07548613	     11.18818594	     -8.46882612	     16.29586171	     -2.49897077	      0.00000000	    -28.02016472	     -2.53933412	     -5.24906535
      5.00000000	     11.64616135	      3.32797060	      5.10166085	      0.55206654	      0.94428878	     -0.28554344	      5.21894690	     -6.04275103	     -5.95385435	    -60.89765790	     17.17538787	     -2.93247100	      0.00000000	    -12.51561117	      4.73956121	     11.27061134	     -8.09059186	     16.40490167	     -2.36393591	      0.00000000	    -28.06079312	     -2.13955859	     -5.69484310
      5.00500000	     11.59215210	      3.14782138	      5.24564855	      0.55802936	      0.94452109	     -0.28581646	      5.94501611	     -5.80540653	     -6.07826036	    -60.02161418	     17.72104345	     -2.57032794	      0.00000000	    -13.03866205	      4.46790102	     11.21318703	     -7.64529282	     16.40356227	     -2.33732041	      0.00000000	    -28.01458204	     -1.85027173	     -5.96048843
      5.01000000	     11.54727562	      2.96445771	      5.45915546	      0.56398246	      0.94469915	     -0.28611177	      6.61210158	     -5.56660490	     -6.26567206	    -59.04727917	     18.26762217	     -2.17335180	      0.00000000	    -13.55116277	      4.17393671	     11.19382419	     -7.24203697	     16.49421183	     -2.25073956	      0.00000000	    -27.98140466	     -1.54883811	     -6.26555024
